<svg width="26" height="26" viewBox="0 0 26 26" fill="none" xmlns="http://www.w3.org/2000/svg">
<path d="M25.381 0H0.619048C0.276714 0 0 0.277333 0 0.619048V25.381C0 25.7227 0.276714 26 0.619048 26H25.381C25.7233 26 26 25.7227 26 25.381V0.619048C26 0.277333 25.7233 0 25.381 0ZM15.4762 13.8945H12.381V23.5238H9.90476V13.8945H6.80952V11.7619H15.4762V13.8945ZM16.1701 22.9741V20.4001C16.1701 20.4001 17.576 21.4599 19.2629 21.4599C20.9498 21.4599 20.8848 20.3568 20.8848 20.2057C20.8848 18.6049 16.1051 18.6049 16.1051 15.0583C16.1051 10.2353 23.0694 12.1383 23.0694 12.1383L22.9828 14.4312C22.9828 14.4312 21.8146 13.6525 20.4954 13.6525C19.1762 13.6525 18.7002 14.2796 18.7002 14.95C18.7002 16.6802 23.5232 16.5075 23.5232 19.9897C23.5238 25.3531 16.1701 22.9741 16.1701 22.9741Z" fill="white"/>
</svg>
