<svg width="180" height="38" viewBox="0 0 180 38" fill="none" xmlns="http://www.w3.org/2000/svg">
<path d="M73.5925 29.38V7.09176H78.599V24.6147H89.6979V29.38H73.5925ZM108.096 20.7241C108.096 21.3876 108.035 22.0511 107.945 22.7146H95.7902C96.3029 24.5242 97.7205 25.8211 100.284 25.8211C102.064 25.8211 104.114 25.1274 105.441 24.2226L107.311 27.4498C105.713 28.6562 103.149 29.7419 100.073 29.7419C93.8902 29.7419 91.025 25.5798 91.025 21.086C91.025 16.1699 94.4934 12.4301 99.7412 12.4301C104.476 12.4301 108.096 15.4762 108.096 20.7241ZM99.7412 16.2604C97.811 16.2604 96.3029 17.4065 95.7601 19.3367H103.541C103.119 17.4668 101.732 16.2604 99.7412 16.2604ZM123.296 12.8523H127.76V29.38H123.296V27.691C122.09 28.8974 120.461 29.8022 118.199 29.8022C113.434 29.8022 110.056 25.9418 110.056 21.0257C110.056 16.0794 113.524 12.4301 118.199 12.4301C120.431 12.4301 122.09 13.365 123.296 14.6016V12.8523ZM119.013 25.4894C121.517 25.4894 123.296 23.4686 123.296 21.086C123.296 18.7335 121.517 16.743 119.013 16.743C116.51 16.743 114.791 18.7335 114.791 21.086C114.791 23.4988 116.54 25.4894 119.013 25.4894ZM131.409 29.38V12.8523H136.024V15.1445C136.838 13.6666 138.738 12.3999 141.241 12.3999C144.529 12.3999 147.665 14.6016 147.665 19.2764V29.38H142.93V20.513C142.93 18.07 141.633 16.743 139.703 16.743C137.592 16.743 136.144 18.3113 136.144 20.6336V29.38H131.409ZM151.616 7.09176H156.623V29.38H151.616V7.09176ZM159.066 29.38L166.093 18.1303L159.579 7.09176H165.339L169.32 14.3603L173.543 7.09176H179.364L172.457 18.1303L179.303 29.38H173.543L169.26 21.9003L164.887 29.38H159.066Z" fill="white"/>
<mask id="mask0" mask-type="alpha" maskUnits="userSpaceOnUse" x="18" y="0" width="38" height="37">
<path d="M36.92 36.92C46.9716 36.92 55.12 28.7716 55.12 18.72C55.12 8.66842 46.9716 0.519997 36.92 0.519997C26.8684 0.519997 18.72 8.66842 18.72 18.72C18.72 28.7716 26.8684 36.92 36.92 36.92Z" fill="white"/>
</mask>
<g mask="url(#mask0)">
<path d="M36.92 36.92C46.9716 36.92 55.12 28.7716 55.12 18.72C55.12 8.66842 46.9716 0.519997 36.92 0.519997C26.8684 0.519997 18.72 8.66842 18.72 18.72C18.72 28.7716 26.8684 36.92 36.92 36.92Z" fill="white"/>
</g>
<path fill-rule="evenodd" clip-rule="evenodd" d="M0 18.72L18.72 0L37.44 18.72L18.72 37.44L0 18.72Z" fill="white"/>
<path fill-rule="evenodd" clip-rule="evenodd" d="M24.2212 31.72C20.8276 28.4236 18.72 23.8172 18.72 18.72C18.72 13.6228 20.8276 9.01641 24.2212 5.72L37.44 18.72L24.2212 31.72Z" fill="#05668D"/>
</svg>
